<svg width="299" height="29" viewBox="0 0 299 29" fill="none" xmlns="http://www.w3.org/2000/svg">
<g filter="url(#filter0_d_133_5)">
<path d="M4.92594 10.172C4.92594 4.684 9.74194 0.399999 15.2019 0.399999H39.8699V3.48H15.2019C15.1459 3.48 15.0899 3.48 15.0339 3.48C11.9819 3.48 9.06994 5.692 8.36994 8.744L8.28594 9.136C8.20194 9.444 8.17394 9.752 8.14594 10.172C8.14594 13.672 11.1979 16.92 15.2299 16.92H39.8979V19.972H15.2299C9.68594 19.972 4.92594 15.66 4.92594 10.172ZM42.1331 5.636C42.1331 2.724 44.6251 0.399999 47.6491 0.399999H71.5331C74.5571 0.399999 77.0491 2.724 77.0491 5.636V14.82C77.0491 17.732 74.5571 20.056 71.5331 20.056H47.6491C44.6251 20.056 42.1331 17.732 42.1331 14.82V5.636ZM45.2691 14.792C45.2691 15.912 46.3051 16.948 47.6211 16.948H71.5051C72.8211 16.948 73.8571 15.912 73.8571 14.792V5.608C73.8571 4.46 72.8211 3.48 71.5051 3.48H47.6211C46.3051 3.48 45.2691 4.46 45.2691 5.608V14.792ZM80.4144 19.86V0.287998L112.166 15.1V0.399999H115.358V20L115.246 19.944C114.546 19.664 110.318 17.592 83.6344 5.16V19.86H80.4144ZM118.723 19.86V0.287998L150.475 15.1V0.399999H153.667V20L153.555 19.944C152.855 19.664 148.627 17.592 121.943 5.16V19.86H118.723ZM157.032 20V16.92H191.976V20H157.032ZM191.976 3.424H157.032V0.343999L191.976 0.371999V3.424ZM157.032 8.66H190.296V11.684H157.032V8.66ZM194.5 10.116C194.5 4.628 199.4 0.399999 204.776 0.399999H210.264C214.548 0.399999 219.616 0.371999 224.964 0.371999H251.76V3.452H235.884V20H232.692V3.424H204.86C201.528 3.424 198.616 5.748 197.944 8.772L197.86 9.164C197.776 9.472 197.748 9.78 197.72 10.2C197.72 13.7 200.772 16.948 204.804 16.948H229.472V20H204.804C199.26 20 194.5 15.688 194.5 10.2V10.116Z" fill="#FAFAFA"/>
<path d="M257.213 20H253.993V0.399999H257.213V20ZM259.462 3.48V0.399999H294.35V3.48H278.474V20H275.282V3.48H259.462Z" fill="#FE744D"/>
</g>
<defs>
<filter id="filter0_d_133_5" x="0.926025" y="0.287964" width="297.424" height="27.7681" filterUnits="userSpaceOnUse" color-interpolation-filters="sRGB">
<feFlood flood-opacity="0" result="BackgroundImageFix"/>
<feColorMatrix in="SourceAlpha" type="matrix" values="0 0 0 0 0 0 0 0 0 0 0 0 0 0 0 0 0 0 127 0" result="hardAlpha"/>
<feOffset dy="4"/>
<feGaussianBlur stdDeviation="2"/>
<feComposite in2="hardAlpha" operator="out"/>
<feColorMatrix type="matrix" values="0 0 0 0 0 0 0 0 0 0 0 0 0 0 0 0 0 0 0.25 0"/>
<feBlend mode="normal" in2="BackgroundImageFix" result="effect1_dropShadow_133_5"/>
<feBlend mode="normal" in="SourceGraphic" in2="effect1_dropShadow_133_5" result="shape"/>
</filter>
</defs>
</svg>
