<svg xmlns="http://www.w3.org/2000/svg" xmlns:xlink="http://www.w3.org/1999/xlink" viewBox="0,0,256,256" width="96px" height="96px"><g fill="#fe744d" fill-rule="nonzero" stroke="none" stroke-width="1" stroke-linecap="butt" stroke-linejoin="miter" stroke-miterlimit="10" stroke-dasharray="" stroke-dashoffset="0" font-family="none" font-weight="none" font-size="none" text-anchor="none" style="mix-blend-mode: normal"><g transform="scale(4,4)"><path d="M32,10c-6.242,0 -11.87295,2.6033 -15.87695,6.7793c-0.814,0.849 -0.65586,2.26522 0.24414,2.94922c0.819,0.623 1.97336,0.5263 2.69336,-0.2207c3.272,-3.392 7.85445,-5.50781 12.93945,-5.50781c9.2641,0 16.886,7.00056 17.88086,16h-3.76172c-0.894,0 -1.42111,1.00328 -0.91211,1.73828l5.88281,8.50195c0.44,0.637 1.38126,0.637 1.82227,0l5.88086,-8.50195c0.508,-0.735 -0.01811,-1.73828 -0.91211,-1.73828h-3.97461c-1.0108,-11.21249 -10.43064,-20 -21.90625,-20zM12,23.2832c-0.34563,0 -0.69161,0.15806 -0.91211,0.47656l-5.88086,8.50195c-0.508,0.735 0.01811,1.73828 0.91211,1.73828h3.97461c1.01079,11.21249 10.43064,20 21.90625,20c6.242,0 11.87295,-2.6033 15.87695,-6.7793c0.814,-0.849 0.65586,-2.26522 -0.24414,-2.94922c-0.819,-0.623 -1.97336,-0.5263 -2.69336,0.2207c-3.272,3.392 -7.85445,5.50781 -12.93945,5.50781c-9.2641,0 -16.886,-7.00056 -17.88086,-16h3.76172c0.894,0 1.42111,-1.00328 0.91211,-1.73828l-5.88281,-8.50195c-0.22,-0.3185 -0.56453,-0.47656 -0.91016,-0.47656z"></path></g></g></svg>